<svg width="355" height="355" viewBox="0 0 355 355" fill="none" xmlns="http://www.w3.org/2000/svg" baseProfile="tiny-ps" version="1.2">
    <title>Coast</title>
<path d="M88.6874 35.1391H88.1322V35.6944V61.5057V62.0609H88.6874C110.267 62.0609 121.086 55.5465 131.83 49.0756L131.835 49.0728C142.518 42.6389 153.127 36.2496 174.401 36.2496H174.956V35.6944V9.88301V9.3278H174.401C152.821 9.3278 142.002 15.8422 131.258 22.3131L131.253 22.3159C120.57 28.7498 109.961 35.1391 88.6874 35.1391Z" fill="#2047F4" stroke="#2047F4" stroke-width="1.11042"/>
<path d="M88.6874 85.7872H88.1322V86.3424V112.154V112.709H88.6874C110.267 112.709 121.086 106.195 131.83 99.7237L131.835 99.7208C142.518 93.287 153.127 86.8976 174.401 86.8976H174.956V86.3424V60.5311V59.9758H174.401C152.821 59.9758 142.002 66.4903 131.258 72.9611L131.253 72.964C120.57 79.3978 109.961 85.7872 88.6874 85.7872Z" fill="#2047F4" stroke="#2047F4" stroke-width="1.11042"/>
<path d="M2 35.141H1.44479V35.6962V61.5075V62.0627H2C23.8213 62.0627 34.7617 55.5496 45.6277 49.0789L45.6327 49.0759C56.4368 42.642 67.1682 36.2514 88.6872 36.2514H89.2424V35.6962V9.88485V9.32964H88.6872C66.8659 9.32964 55.9255 15.8427 45.0595 22.3135L45.0545 22.3165C34.2504 28.7504 23.519 35.141 2 35.141Z" fill="#2047F4" stroke="#2047F4" stroke-width="1.11042"/>
<path d="M2 85.7872H1.44479V86.3424V112.154V112.709H2C23.8213 112.709 34.7617 106.196 45.6277 99.7251L45.6327 99.7221C56.4368 93.2882 67.1682 86.8976 88.6872 86.8976H89.2424V86.3424V60.5311V59.9758H88.6872C66.8659 59.9758 55.9255 66.4889 45.0595 72.9597L45.0545 72.9627C34.2504 79.3966 23.519 85.7872 2 85.7872Z" fill="#2047F4" stroke="#2047F4" stroke-width="1.11042"/>
<path d="M297.225 78.7148L297.236 78.5375H297.059H273.748H273.598L273.583 78.6867C272.964 84.6062 270.579 89.0546 267.079 92.0241C263.577 94.9948 258.947 96.4965 253.819 96.4965C246.652 96.4965 241.009 94.111 237.154 89.4226C233.295 84.7289 231.209 77.7043 231.209 68.3909V66.9684C231.209 58.1038 233.426 51.2108 237.287 46.5372C241.145 41.8672 246.657 39.3963 253.285 39.3963C258.509 39.3963 262.738 40.6348 265.88 43.2039C269.021 45.7722 271.097 49.6873 271.982 55.082L272.005 55.2216H272.147H296.525H296.706L296.691 55.0406C295.53 41.6608 289.948 32.5905 281.941 26.8696C273.941 21.1529 263.538 18.7926 252.751 18.7926C239.456 18.7926 227.402 23.3848 218.671 31.7525C209.939 40.1213 204.54 52.2572 204.54 67.3241V68.7466C204.54 83.9891 209.715 95.8599 218.317 103.919C226.916 111.977 238.927 116.211 252.573 116.211C266.128 116.211 276.935 112.379 284.534 105.768C292.134 99.1567 296.511 89.7782 297.225 78.7148ZM460.938 58.2669H450.606C436.36 58.2669 424.226 60.3124 415.648 65.0892C407.057 69.8734 402.039 77.3955 402.039 88.3059C402.039 98.1304 405.617 105.116 411.333 109.641C417.044 114.161 424.869 116.211 433.346 116.211C440.663 116.211 446.385 114.784 450.95 112.414C455.345 110.132 458.66 106.979 461.294 103.4V114.089V114.255H461.46H486.55H486.717V114.089V53.4547C486.717 40.7919 482.654 32.1144 475.71 26.6079C468.773 21.1072 458.988 18.7926 447.581 18.7926C436.172 18.7926 426.08 21.2416 418.636 26.4687C411.186 31.7001 406.403 39.7041 405.598 50.7755L405.585 50.9541H405.765H430.143H430.288L430.308 50.8096C430.838 46.8345 432.25 43.5869 434.769 41.332C437.288 39.0776 440.936 37.796 445.98 37.796C451.825 37.796 455.547 39.2999 457.816 42.1344C460.092 44.9778 460.938 49.1966 460.938 54.6994V58.2669ZM547.819 47.7952L547.844 47.9313H547.983H571.649H571.835L571.815 47.7468C570.653 37.036 566.183 29.7874 559.397 25.2222C552.619 20.662 543.551 18.7926 533.214 18.7926C523.668 18.7926 514.424 21.199 507.56 26.0467C500.692 30.8983 496.213 38.193 496.213 47.9425C496.213 57.0431 498.626 63.4107 504.17 67.964C509.701 72.5064 518.326 75.2229 530.697 77.0906L530.698 77.0907C537.37 78.0686 542.058 79.2214 545.076 80.9163C546.582 81.762 547.665 82.7387 548.372 83.8895C549.079 85.0394 549.418 86.3749 549.418 87.9503C549.418 91.1057 548.28 93.5855 545.928 95.2833C543.566 96.9878 539.959 97.919 534.993 97.919C529.409 97.919 525.63 96.723 523.114 94.5153C520.599 92.3081 519.319 89.0648 518.788 84.9064L518.769 84.7609H518.622H494.6H494.426L494.434 84.9348C494.88 95.0237 498.77 102.852 505.709 108.153C512.644 113.451 522.604 116.211 535.171 116.211C547.469 116.211 557.297 113.585 564.054 108.42C570.818 103.25 574.485 95.552 574.485 85.4609C574.485 75.4611 571.264 68.9596 565.095 64.5437C558.943 60.1396 549.876 57.8243 538.22 56.1349C531.457 55.1567 526.992 54.0927 524.219 52.5534C522.837 51.7861 521.884 50.9049 521.274 49.8643C520.664 48.8236 520.39 47.61 520.39 46.1644C520.39 43.3715 521.567 41.0205 523.771 39.3629C525.981 37.7017 529.234 36.7291 533.391 36.7291C537.82 36.7291 541.07 37.6145 543.387 39.4276C545.702 41.2391 547.112 43.9965 547.819 47.7952ZM635.604 113.535L635.716 113.496V113.377V93.4625V93.2138L635.486 93.3084C632.484 94.5437 629.658 95.074 625.762 95.074C622.499 95.074 619.969 94.1933 618.253 92.4133C616.536 90.6324 615.608 87.9245 615.608 84.2162V39.5741H635.015H635.182V39.4075V21.0929V20.9263H635.015H615.608V1.00009V0.833531H615.441H589.818H589.651V1.00009V20.9263H577.896H577.729V21.0929V39.4075V39.5741H577.896H589.651V86.5278C589.651 96.2477 592.284 103.632 597.398 108.585C602.511 113.537 610.077 116.033 619.89 116.033C626.851 116.033 632.029 114.785 635.604 113.535ZM349.358 96.3187C342.107 96.3187 336.463 93.6701 332.628 88.8249C328.789 83.9742 326.748 76.9031 326.748 68.0353V66.6128C326.748 57.7466 328.877 50.7649 332.76 46.003C336.639 41.2455 342.284 38.685 349.358 38.685C356.519 38.685 362.163 41.3333 366.021 46.1792C369.882 51.0302 371.968 58.1014 371.968 66.9684V68.2131C371.968 76.9909 369.882 84.0176 366.021 88.8465C362.163 93.6704 356.519 96.3187 349.358 96.3187ZM349.18 116.211C363.185 116.211 375.506 111.531 384.327 103.163C393.148 94.7941 398.458 82.7468 398.458 68.0353V66.6128C398.458 52.079 393.193 40.1207 384.416 31.7963C375.64 23.473 363.363 18.7926 349.358 18.7926C335.351 18.7926 323.03 23.5624 314.21 31.9969C305.389 40.4321 300.079 52.5235 300.079 67.1462V68.5688C300.079 83.1031 305.389 95.0171 314.189 103.297C322.987 111.575 335.263 116.211 349.18 116.211ZM440.997 97.919C436.305 97.919 432.97 96.8131 430.809 94.8938C428.652 92.9773 427.64 90.2275 427.64 86.8834C427.64 84.4189 428.179 82.3835 429.211 80.7142C430.243 79.0449 431.774 77.7304 433.777 76.719C437.788 74.6927 443.671 73.8919 451.14 73.8919H460.938V81.549C460.938 86.6537 458.782 90.74 455.218 93.554C451.651 96.3709 446.663 97.919 440.997 97.919Z" fill="white" stroke="white" stroke-width="0.333126"/>
</svg>
